<?xml version="1.0" encoding="utf-8"?>
<!-- Generator: Adobe Illustrator 23.0.1, SVG Export Plug-In . SVG Version: 6.00 Build 0)  -->
<svg version="1.1" id="Layer_1" xmlns="http://www.w3.org/2000/svg" xmlns:xlink="http://www.w3.org/1999/xlink" x="0px" y="0px"
	 viewBox="0 0 400 840" style="enable-background:new 0 0 400 840;" xml:space="preserve">
<style type="text/css">
	.st0{fill:#B9B8B8;}
	.st1{font-family:'MyriadPro-Regular';}
	.st2{font-size:12px;}
</style>
<g>
	<rect x="-1" y="-1" class="st0" width="401" height="843"/>
</g>
<polygon points="43.5,155.5 70.5,148.5 84.5,189.5 109.5,142.5 146.5,157.5 109.5,215.5 110.5,283.5 66.5,284.5 58.5,207.5 "/>
<g>
	<polygon points="143.5,193.5 142.5,275.5 209.5,273.5 202.5,159.5 	"/>
</g>
<polygon points="233.5,165.5 232.5,268.5 307.5,267.5 311.5,275.5 326.5,267.5 312.5,148.5 283.5,156.5 290.5,236.5 258.5,238.5 
	259.5,152.5 "/>
<polygon class="st0" points="165,218 166,245 185,245 181,208 "/>
<polygon points="44,331 67,330 69,421 121,424 121,457 45,457 "/>
<polygon points="129,340 132,451 190,453 181,327 "/>
<polygon points="247,327 202,327 204,374 239,369 242,399 208,405 215,443 268,435 265,355 220,348 224,334 264,330 "/>
<polygon points="283,330 289,448 344,449 337,413 310,415 309,388 323,389 318,368 305,366 302,351 334,354 326,321 "/>
<text transform="matrix(1 0 0 1 142 485)" class="st1 st2">(Reset to play again)</text>
</svg>
